<svg width="21" height="25" viewBox="0 0 21 25" fill="none" xmlns="http://www.w3.org/2000/svg">
<path d="M14.8409 0.727272H20.4545V15.7386C20.4545 17.4735 20.0417 18.9848 19.2159 20.2727C18.3902 21.553 17.2386 22.5455 15.7614 23.25C14.2841 23.947 12.5682 24.2955 10.6136 24.2955C8.63636 24.2955 6.90909 23.947 5.43182 23.25C3.95455 22.5455 2.80682 21.553 1.98864 20.2727C1.17045 18.9848 0.761364 17.4735 0.761364 15.7386V0.727272H6.38636V15.25C6.38636 16.053 6.56061 16.7689 6.90909 17.3977C7.26515 18.0265 7.76136 18.5189 8.39773 18.875C9.03409 19.2311 9.77273 19.4091 10.6136 19.4091C11.4545 19.4091 12.1894 19.2311 12.8182 18.875C13.4545 18.5189 13.9508 18.0265 14.3068 17.3977C14.6629 16.7689 14.8409 16.053 14.8409 15.25V0.727272Z" fill="white"/>
</svg>
